<svg xmlns="http://www.w3.org/2000/svg" viewBox="0 0 600 300" preserveAspectRatio="none">
  <path
    d="M91 247C49 252 22 226 29 187C2 160 16 111 58 101C53 62 91 34 132 50C158 15 218 13 248 45C287 10 348 13 381 49C422 20 480 34 494 82C542 72 584 111 571 158C594 196 565 243 523 246C502 278 455 286 419 264C382 292 336 290 302 270C259 295 207 286 178 263C142 279 107 267 91 247Z"
    fill="#fffaf4"
    fill-opacity=".88"
    stroke="#c6a983"
    stroke-opacity=".85"
    stroke-width="2"
  />
</svg>
